<svg fill="#e3e4e5" height="200px" width="200px" version="1.1" id="Layer_1" xmlns="http://www.w3.org/2000/svg" xmlns:xlink="http://www.w3.org/1999/xlink" viewBox="0 0 511.999 511.999" xml:space="preserve"><g id="SVGRepo_bgCarrier" stroke-width="0"></g><g id="SVGRepo_tracerCarrier" stroke-linecap="round" stroke-linejoin="round"></g><g id="SVGRepo_iconCarrier"> <g> <g> <path d="M416.954,120.471c-1.134,0-2.269,0.02-3.404,0.061c-5.477-40.62-40.386-72.053-82.472-72.053 c-15.446,0-30.19,4.145-43.161,12.065C266.84,37.73,237.533,24.825,206.12,24.825c-56.038,0-102.677,41.25-110.385,95.649 c-0.23-0.002-0.46-0.003-0.688-0.003C42.638,120.471,0,163.109,0,215.517c0,52.409,42.638,95.046,95.046,95.046h32.462 l-77.605,77.605c-3.983,3.983-3.983,10.441,0,14.425c1.992,1.992,4.602,2.987,7.212,2.987s5.221-0.995,7.212-2.987l92.029-92.029 h27.247L24.406,469.762c-3.983,3.983-3.983,10.441,0,14.425c1.992,1.992,4.602,2.987,7.212,2.987c2.61,0,5.221-0.995,7.212-2.987 l173.623-173.623h29.287l-77.605,77.605c-3.983,3.983-3.983,10.441,0,14.425c1.992,1.992,4.602,2.987,7.212,2.987 s5.221-0.995,7.212-2.987l92.029-92.029h28.267L139.657,469.762c-3.983,3.983-3.983,10.441,0,14.425 c1.992,1.992,4.602,2.987,7.212,2.987s5.221-0.995,7.212-2.987l173.623-173.623h27.247l-77.605,77.605 c-3.983,3.983-3.983,10.441,0,14.425c1.992,1.992,4.602,2.987,7.212,2.987c2.61,0,5.221-0.995,7.212-2.987l92.029-92.029h33.154 c52.409,0,95.046-42.638,95.046-95.046S469.362,120.471,416.954,120.471z M416.954,290.165H95.046 c-41.161,0-74.648-33.487-74.648-74.648c0-41.161,33.487-74.648,74.648-74.648c2.827,0,5.679,0.171,8.719,0.525 c2.803,0.326,5.617-0.524,7.771-2.35c2.153-1.825,3.454-4.461,3.593-7.28c2.389-48.528,42.356-86.542,90.99-86.542 c28.313,0,54.538,12.837,71.95,35.22c1.664,2.139,4.111,3.528,6.801,3.86c2.686,0.331,5.401-0.42,7.535-2.091 c11.146-8.723,24.518-13.334,38.67-13.334c34.611,0,62.791,28.158,62.82,62.77c0.002,2.972,1.3,5.794,3.554,7.73 c2.254,1.935,5.241,2.791,8.178,2.346c3.724-0.566,7.534-0.853,11.324-0.853c41.161,0,74.648,33.487,74.648,74.648 C491.602,256.678,458.115,290.165,416.954,290.165z"></path> </g> </g> <g> <g> <path d="M221.032,257.255H93.504c-5.633,0-10.199,4.566-10.199,10.199c0,5.633,4.566,10.199,10.199,10.199h127.529 c5.633,0,10.199-4.566,10.199-10.199C231.232,261.821,226.665,257.255,221.032,257.255z"></path> </g> </g> <g> <g> <path d="M263.2,257.255h-5.142c-5.633,0-10.199,4.566-10.199,10.199c0,5.633,4.566,10.199,10.199,10.199h5.142 c5.633,0,10.199-4.566,10.199-10.199C273.399,261.821,268.833,257.255,263.2,257.255z"></path> </g> </g> </g></svg>